# xmcd
#
# Track frame offsets:
#	150
#	19664
#	39368
#	56760
#	75012
#	89910
#	110999
#	128411
#	147929
#	167049
#	182747
#
# Disc length: 2682 seconds
#
# Revision: 1
# Processed by: cddbd v1.5.2PL0 Copyright (c) Steve Scherf et al.
# Submitted via: audiograbber 1.83.01
#
DISCID=8c0a780b
DTITLE=Wynonna - A Classic Christmas
DYEAR=2006
DGENRE=Country
TTITLE0=Christmas Song
TTITLE1=Winter Wonderland
TTITLE2=White Christmas
TTITLE3=I'll Be Home For Christmas
TTITLE4=Santa Claus Is Coming To Town
TTITLE5=Have Yourself A Merry Little Christmas
TTITLE6=Ave Maria
TTITLE7=O Come, O Come Emmanuel
TTITLE8=O Holy Night
TTITLE9=Silent Night
TTITLE10=It's The Messiah
EXTD=
EXTT0=
EXTT1=
EXTT2=
EXTT3=
EXTT4=
EXTT5=
EXTT6=
EXTT7=
EXTT8=
EXTT9=
EXTT10=
PLAYORDER=
